<svg xmlns="http://www.w3.org/2000/svg">
  <symbol viewBox="0 0 20 29" id="ch1">
    <path d="M10 0C4.55706 0 0.128906 4.58608 0.128906 10.2231C0.128906 12.7281 1.00385 15.025 2.45312 16.8047V27.8658C2.45312 28.7728 3.43526 29.3128 4.16063 28.8033L10 24.7034L15.8393 28.8034C16.5644 29.3125 17.5469 28.7734 17.5469 27.8658V16.8047C18.9961 15.025 19.8711 12.7281 19.8711 10.2231C19.8711 4.58608 15.4429 0 10 0V0ZM15.3594 25.7293L10.6138 22.3972C10.2432 22.137 9.75686 22.137 9.38624 22.3972L4.64062 25.7293V18.8042C6.18505 19.8424 8.02562 20.4462 10 20.4462C11.9744 20.4462 13.8149 19.8424 15.3594 18.8042V25.7293ZM10 18.1807C5.76325 18.1807 2.31641 14.611 2.31641 10.2231C2.31641 5.83529 5.76325 2.26551 10 2.26551C14.2367 2.26551 17.6836 5.83529 17.6836 10.2231C17.6836 14.611 14.2367 18.1807 10 18.1807Z"/>
  </symbol>
  <symbol viewBox="0 0 29 31" id="ch2">
    <path d="M15.1088 3.38718V1.67691C15.1088 1.20465 14.7259 0.821777 14.2536 0.821777C13.7814 0.821777 13.3985 1.20465 13.3985 1.67691V3.38718C13.3985 3.85944 13.7814 4.24231 14.2536 4.24231C14.7259 4.24231 15.1088 3.85944 15.1088 3.38718Z"/>
    <path d="M8.10978 5.60427C8.53786 5.40468 8.72302 4.89587 8.52344 4.46785L7.80068 2.91778C7.60109 2.48975 7.09211 2.30453 6.66426 2.50418C6.23618 2.70377 6.05102 3.21257 6.2506 3.64059L6.97342 5.19061C7.17398 5.62074 7.68386 5.80289 8.10978 5.60427Z"/>
    <path d="M3.01193 8.28725L1.70181 7.18789C1.33991 6.88426 0.800551 6.93152 0.497093 7.2933C0.19352 7.65508 0.240666 8.19444 0.602502 8.49802L1.91262 9.59738C2.27298 9.89975 2.81263 9.85523 3.11734 9.49197C3.42085 9.13019 3.37371 8.59083 3.01193 8.28725Z"/>
    <path d="M21.5337 5.19056L22.2565 3.64054C22.4561 3.21252 22.2709 2.70372 21.8428 2.50413C21.415 2.3046 20.906 2.4897 20.7064 2.91773L19.9836 4.46774C19.784 4.89577 19.9692 5.40457 20.3972 5.60416C20.8225 5.80255 21.3328 5.62126 21.5337 5.19056Z"/>
    <path d="M28.01 7.29328C27.7065 6.9315 27.167 6.8843 26.8053 7.18787L25.4952 8.28723C25.1333 8.5908 25.0862 9.13022 25.3898 9.49194C25.6924 9.85264 26.2317 9.90184 26.5945 9.59735L27.9046 8.49799C28.2664 8.19442 28.3136 7.65506 28.01 7.29328Z"/>
    <path d="M5.70572 9.43018C5.69985 9.43172 5.24999 9.41364 4.98598 9.81812C4.51925 10.5182 2.05139 14.22 1.57018 14.9418C1.35525 15.2641 1.38775 15.6927 1.63699 15.9779L13.6089 29.7171C13.7713 29.9035 14.0064 30.0104 14.2536 30.0104C14.5008 30.0104 14.7359 29.9035 14.8983 29.717L26.8702 15.9779C27.1149 15.6985 27.1557 15.2696 26.937 14.9417L23.5212 9.81806C23.3608 9.57315 23.0884 9.43018 22.8049 9.43018C22.8049 9.43018 5.70629 9.43018 5.70572 9.43018ZM24.6276 14.561H20.9822L22.8049 11.8269L24.6276 14.561ZM11.1872 14.561L14.2536 11.4946L17.3199 14.561H11.1872ZM18.1504 16.2712L14.2536 26.6628L10.3567 16.2712H18.1504ZM11.8309 25.0733L4.16112 16.2712H8.53017L11.8309 25.0733ZM19.977 16.2712H24.3461L16.6762 25.0733L19.977 16.2712ZM19.2515 14.0739L16.3181 11.1404H21.2071L19.2515 14.0739ZM9.25567 14.0739L7.30003 11.1404H12.1891L9.25567 14.0739ZM7.52499 14.561H3.87955L5.70224 11.8269L7.52499 14.561Z"/>
  </symbol>
  <symbol viewBox="0 0 27 31" id="ch3">
    <path d="M21.1842 3.39724V0.821777H5.73137V3.39724H0.580444V6.42267C0.580444 10.7018 2.93522 14.5935 6.72579 16.579L12.5993 19.6556V24.5644L10.972 25.2153C9.35299 25.8629 8.30683 27.4081 8.30683 29.1519V30.0104H18.6087V29.1519C18.6087 27.4081 17.5625 25.8629 15.9435 25.2153L14.3162 24.5644V19.6556L20.1897 16.579C23.9803 14.5935 26.3351 10.7018 26.3351 6.42267V3.39724H21.1842ZM7.44835 2.53875H19.4672V7.78074C19.4672 10.2673 18.5188 12.6246 16.7968 14.4184L13.4578 17.8965L10.1188 14.4184C8.39669 12.6247 7.44835 10.2674 7.44835 7.78074V2.53875ZM2.29742 6.42267V5.11422H5.73137V7.78074C5.73137 10.7128 6.84964 13.4923 8.88013 15.6075L9.19251 15.9329L7.52246 15.0581C4.29953 13.3699 2.29742 10.061 2.29742 6.42267ZM16.7431 28.2934H10.1724C10.4113 27.6282 10.9242 27.0837 11.6097 26.8095L13.4578 26.0702L15.3058 26.8095C15.9913 27.0837 16.5042 27.6282 16.7431 28.2934ZM24.6181 6.42267C24.6181 10.061 22.616 13.3699 19.3931 15.0581L17.723 15.9329L18.0354 15.6075C20.0659 13.4924 21.1842 10.7128 21.1842 7.78074V5.11422H24.6181V6.42267Z"/>
    <path d="M12.5992 11.1238H14.3162V4.25586H11.4983V5.97283H12.5992V11.1238Z"/>
  </symbol>
</svg>