<svg width="101" height="40" fill="none" xmlns="http://www.w3.org/2000/svg"><path d="M0 10.36c0-.872.48-1.307 1.308-1.307h14.007c.872 0 1.308.435 1.307 1.306v1.094c0 .873-.435 1.35-1.307 1.35H3.973v9.36h8.943c.871 0 1.307.436 1.308 1.308v1.089c0 .872-.437 1.35-1.308 1.35H3.973v9.89h11.342c.876 0 1.307.477 1.307 1.349v1.088c0 .872-.435 1.307-1.307 1.307H1.312c-.829 0-1.308-.435-1.308-1.306L0 10.36zm24.778-1.307h1.308c.876 0 1.353.435 1.353 1.306v13.504L37.646 9.968c.393-.567.829-.915 1.701-.915h1.878c.83 0 1.092 1.007.655 1.568l-8.637 11.152 8.856 16.247c.348.653.043 1.524-.83 1.524h-1.704c-.917 0-1.352-.26-1.745-1.044l-7.11-13.417-3.271 4.27v8.885c0 .87-.48 1.306-1.353 1.306h-1.308c-.829 0-1.309-.435-1.309-1.306V10.36c0-.87.48-1.306 1.309-1.306zm27.959 3.745h-5.67c-.876 0-1.31-.478-1.31-1.35V10.36c0-.872.437-1.307 1.31-1.307H62.42c.873 0 1.31.435 1.309 1.306v1.094c0 .873-.435 1.35-1.309 1.35h-5.715v25.435c0 .87-.437 1.306-1.31 1.306H54.09c-.877 0-1.352-.435-1.352-1.306v-25.44h-.001zm16.137 5.142c0-6.23 3.926-9.366 9.161-9.366 5.234 0 9.16 3.137 9.16 9.366v20.3c0 .87-.435 1.305-1.308 1.305h-1.31c-.871 0-1.308-.435-1.308-1.306v-8.974H72.8v8.973c0 .87-.435 1.306-1.308 1.306h-1.308c-.872 0-1.309-.435-1.31-1.306V17.94zm3.926 7.58h10.47v-7.188c0-4.486-2.356-6.011-5.235-6.011-2.88 0-5.235 1.525-5.235 6.011v7.187zM94.457 0a5.487 5.487 0 00-3.05.952c-.9.613-1.6 1.481-2.01 2.494a5.566 5.566 0 00.252 4.72 5.55 5.55 0 001.58 1.829 5.478 5.478 0 005.383.656 5.508 5.508 0 002.466-2.04c.603-.91.926-1.98.926-3.073a5.577 5.577 0 00-1.634-3.923A5.524 5.524 0 0094.457 0zm0 8.828a3.259 3.259 0 01-1.811-.565 3.282 3.282 0 01-1.195-1.48 3.307 3.307 0 01.723-3.576 3.266 3.266 0 012.632-.94A3.258 3.258 0 0197.2 3.714c.358.539.55 1.174.55 1.824a3.316 3.316 0 01-.559 1.831 3.293 3.293 0 01-1.477 1.212 3.253 3.253 0 01-1.257.247z" fill="#fff"/></svg>