<svg width="79" height="31" fill="none" xmlns="http://www.w3.org/2000/svg"><path d="M-.005 8.028c0-.675.38-1.012 1.034-1.012h11.065c.689 0 1.034.337 1.033 1.012v.848c0 .676-.344 1.047-1.033 1.047h-8.96v7.254h7.065c.688 0 1.033.337 1.033 1.013v.844c0 .675-.345 1.047-1.033 1.047H3.134v7.663h8.96c.692 0 1.033.37 1.033 1.046v.844c0 .675-.344 1.013-1.033 1.013H1.032c-.655 0-1.034-.338-1.034-1.012L-.005 8.027zM19.57 7.016h1.033c.692 0 1.069.337 1.069 1.012v10.466l8.064-10.769c.31-.44.654-.709 1.343-.709h1.484c.655 0 .862.78.517 1.216l-6.823 8.642 6.997 12.592c.275.506.033 1.18-.657 1.18h-1.346c-.724 0-1.068-.201-1.378-.809L24.256 19.44l-2.584 3.31v6.886c0 .674-.379 1.012-1.069 1.012H19.57c-.655 0-1.034-.338-1.034-1.012V8.027c0-.675.379-1.012 1.034-1.012zM41.657 9.92h-4.48c-.691 0-1.033-.371-1.033-1.047V8.03c0-.676.344-1.013 1.034-1.013h12.13c.69 0 1.034.337 1.034 1.012v.848c0 .676-.344 1.047-1.034 1.047h-4.515v19.712c0 .674-.345 1.012-1.035 1.012h-1.032c-.693 0-1.068-.338-1.068-1.012V9.918zm12.749 3.984c0-4.827 3.101-7.258 7.237-7.258 4.135 0 7.237 2.43 7.237 7.258v15.732c0 .675-.344 1.012-1.034 1.012h-1.034c-.69 0-1.034-.337-1.034-1.012V22.68h-8.27v6.954c0 .675-.345 1.013-1.034 1.013H55.44c-.69 0-1.035-.338-1.035-1.012V13.902zm3.101 5.874h8.271v-5.57c0-3.477-1.86-4.658-4.135-4.658-2.275 0-4.136 1.181-4.136 4.658v5.57zM74.617 0a4.394 4.394 0 00-2.41.738 4.3 4.3 0 00-1.589 1.932 4.24 4.24 0 00.2 3.658 4.313 4.313 0 001.249 1.418 4.389 4.389 0 004.253.508 4.333 4.333 0 001.947-1.581 4.249 4.249 0 00.731-2.381 4.28 4.28 0 00-1.29-3.04 4.37 4.37 0 00-1.42-.93A4.421 4.421 0 0074.618 0zm0 6.842a2.61 2.61 0 01-1.432-.438 2.554 2.554 0 01-.944-1.148 2.517 2.517 0 01-.139-1.47 2.54 2.54 0 01.71-1.301 2.617 2.617 0 013.153-.377c.327.194.607.457.818.77.283.418.435.91.436 1.414-.002.506-.156 1-.443 1.42a2.591 2.591 0 01-2.16 1.13z" fill="#66C7FA"/></svg>